# xmcd
#
# Track frame offsets: 
#        150
#        19412
#        39367
#        58272
#        79539
#        98766
#        116178
#        133603
#        150691
#        170671
#        185351
#        205181
#        222536
#        239253
#        263338
#        279143
#
# Disc length: 3925 seconds
#
# Revision: 0
# Processed by: cddbd v1.5.2PL0 Copyright (c) Steve Scherf et al.
# Submitted via: ExactAudioCopyFreeDBPlugin 1.0
#
DISCID=dc0f5310
DTITLE=黎明  - K2HD 黎明 精彩精選
DYEAR=2013
DGENRE=Pop
TTITLE0=夏日傾情
TTITLE1=沒名字的歌, 無名字的你
TTITLE2=危情追踨
TTITLE3=那有一天不想你
TTITLE4=今夜你會不會來
TTITLE5=對不起, 我愛你
TTITLE6=最後的戀愛
TTITLE7=不醉舞夜
TTITLE8=兩心知
TTITLE9=色情男女
TTITLE10=火舞艷陽
TTITLE11=原諒我
TTITLE12=情深說話未曾講
TTITLE13=藍色街燈
TTITLE14=或許…未必…不過
TTITLE15=甜蜜蜜
EXTD=
EXTT0=
EXTT1=
EXTT2=
EXTT3=
EXTT4=
EXTT5=
EXTT6=
EXTT7=
EXTT8=
EXTT9=
EXTT10=
EXTT11=
EXTT12=
EXTT13=
EXTT14=
EXTT15=
PLAYORDER=
